<svg aria-hidden="true" style="position:absolute;width:0;height:0;overflow:hidden" xmlns="http://www.w3.org/2000/svg">
  <defs>
    <symbol id="icon-eye" viewBox="0 0 32 32">
      <path stroke-linejoin="round" stroke-linecap="round" stroke-width="1.333" d="M2.715 16.429a1.35 1.35 0 0 1 0-.852C4.564 10.013 9.814 6 16 6c6.184 0 11.431 4.009 13.284 9.571.093.276.093.575 0 .852C27.436 21.987 22.187 26 16 26c-6.184 0-11.432-4.009-13.285-9.571z"/>
      <path stroke-linejoin="round" stroke-linecap="round" stroke-width="1.333" d="M20 16a4.003 4.003 0 0 1-4 4 4.003 4.003 0 0 1-4-4 4.003 4.003 0 0 1 4-4 4.003 4.003 0 0 1 4 4z"/>
    </symbol>
    <symbol id="icon-eye-slash" viewBox="0 0 32 32">
      <path stroke-linejoin="round" stroke-linecap="round" stroke-width="1.333" d="M5.307 10.964A13.978 13.978 0 0 0 2.579 16C4.302 21.784 9.659 26 16 26c1.324 0 2.604-.184 3.817-.527M8.304 8.304A13.936 13.936 0 0 1 16 6c6.341 0 11.697 4.216 13.42 9.997a14.033 14.033 0 0 1-5.724 7.699M8.304 8.304 4 4m4.304 4.304 4.867 4.867m10.525 10.525L28 28m-4.304-4.304-4.867-4.867A3.996 3.996 0 0 0 20 16a4.001 4.001 0 0 0-4-4 4.017 4.017 0 0 0-2.829 1.172m5.657 5.656-5.655-5.655"/>
    </symbol>
    <symbol id="icon-cog-6-tooth" viewBox="0 0 32 32">
      <path stroke-linejoin="round" stroke-linecap="round" stroke-width="1.333" d="M12.792 5.253A1.5 1.5 0 0 1 14.272 4h3.457c.733 0 1.36.531 1.48 1.253l.284 1.708c.084.499.417.915.86 1.16.099.053.196.111.293.169.432.261.96.343 1.433.165l1.623-.608a1.498 1.498 0 0 1 1.826.654l1.728 2.996c.177.308.24.668.177 1.018s-.249.665-.523.89l-1.337 1.103c-.391.32-.584.817-.575 1.323.002.113.002.227 0 .34-.009.504.184 1 .573 1.32l1.34 1.104c.565.467.712 1.272.347 1.907l-1.731 2.996a1.499 1.499 0 0 1-1.826.655l-1.623-.608c-.473-.177-1-.096-1.435.165a8.597 8.597 0 0 1-.293.171c-.441.244-.775.66-.859 1.159l-.284 1.707a1.5 1.5 0 0 1-1.48 1.255h-3.459c-.733 0-1.36-.531-1.48-1.253l-.284-1.708c-.083-.499-.416-.915-.859-1.16a9.308 9.308 0 0 1-.293-.169c-.433-.261-.96-.343-1.435-.165l-1.623.608a1.5 1.5 0 0 1-1.825-.653L4.74 20.506a1.5 1.5 0 0 1 .347-1.908l1.339-1.103c.389-.32.583-.817.573-1.323a9.634 9.634 0 0 1 0-.34c.009-.504-.184-1-.573-1.32l-1.339-1.104a1.502 1.502 0 0 1-.347-1.907l1.729-2.996a1.497 1.497 0 0 1 1.826-.654l1.621.608c.475.177 1.001.096 1.435-.165.096-.059.195-.116.293-.171.443-.244.776-.66.859-1.159l.285-1.708z"/>
      <path stroke-linejoin="round" stroke-linecap="round" stroke-width="1.333" d="M20 16a4.003 4.003 0 0 1-4 4 4.003 4.003 0 0 1-4-4 4.003 4.003 0 0 1 4-4 4.003 4.003 0 0 1 4 4z"/>
    </symbol>
    <symbol id="icon-arrow-long-left" viewBox="0 0 32 32">
      <path d="M9.706 10.293a1.002 1.002 0 0 1 0 1.414L6.413 15H28a.997.997 0 0 1 1 1 1 1 0 0 1-1 1H6.413l3.293 3.293a1.002 1.002 0 0 1 .025 1.439.992.992 0 0 1-.725.293 1.001 1.001 0 0 1-.714-.318l-5-5a1.002 1.002 0 0 1 0-1.414l5-5a1.002 1.002 0 0 1 1.414 0z"/>
    </symbol>
    <symbol id="icon-plus-circle" viewBox="0 0 32 32">
      <path stroke-linejoin="round" stroke-linecap="round" stroke-width="1.333" d="M16 12v8m4-4h-8m16 0a12 12 0 1 1-24.003.002A12 12 0 0 1 28.002 16z"/>
    </symbol>
    <symbol id="icon-plus-small" viewBox="0 0 32 32">
      <path stroke-linejoin="round" stroke-linecap="round" stroke-miterlimit="4" stroke-width="2" d="M16 8v16M24 16h-16"></path>
    </symbol>
    <symbol id="icon-pencil-square" viewBox="0 0 32 32">
      <path stroke-linejoin="round" stroke-linecap="round" stroke-width="1.333" d="m22.483 5.983 2.249-2.251a2.5 2.5 0 0 1 3.536 3.536L14.109 21.427a6.002 6.002 0 0 1-2.529 1.507L8 24.001l1.067-3.58a5.992 5.992 0 0 1 1.507-2.529L22.483 5.984zm0 0L26 9.5m-2 9.167V25a3.004 3.004 0 0 1-3 3H7a3.004 3.004 0 0 1-3-3V11a3.004 3.004 0 0 1 3-3h6.333"/>
    </symbol>
    <symbol id="icon-trash" viewBox="0 0 32 32">
      <path stroke-linejoin="round" stroke-linecap="round" stroke-width="1.333" d="m19.653 12-.461 12m-6.384 0-.461-12m13.29-4.28c.456.069.909.143 1.363.221m-1.363-.221-1.424 18.511A3 3 0 0 1 21.221 29H10.778a2.996 2.996 0 0 1-2.992-2.769L6.362 7.72m19.275 0A63.917 63.917 0 0 0 21 7.191M6.363 7.72c-.456.068-.909.141-1.363.22m1.363-.22A63.917 63.917 0 0 1 11 7.191m10 0V5.97c0-1.573-1.213-2.885-2.787-2.935a69.515 69.515 0 0 0-4.427 0c-1.573.049-2.787 1.363-2.787 2.935v1.221m10.001 0a64.947 64.947 0 0 0-10 0"/>
    </symbol>
    <symbol id="icon-chevron-double-up" viewBox="0 0 32 32">
      <path d="M16.706 21.707a1.002 1.002 0 0 1-1.414 0l-10-10a.996.996 0 0 1 .025-1.388 1.002 1.002 0 0 1 1.388-.025l9.293 9.293 9.293-9.293a1.013 1.013 0 0 1 .714-.318.993.993 0 0 1 .725.293.992.992 0 0 1 .293.725 1.001 1.001 0 0 1-.318.714l-10 10z"/>
    </symbol>
    <symbol id="icon-arrow-right-on-rectangle" viewBox="0 0 32 32">
      <path stroke-linejoin="round" stroke-linecap="round" stroke-width="1.333" d="M21 12V7a3.004 3.004 0 0 0-3-3h-8a3.004 3.004 0 0 0-3 3v18a3.004 3.004 0 0 0 3 3h8a3.004 3.004 0 0 0 3-3v-5m4 0 4-4m0 0-4-4m4 4H12"/>
    </symbol>
    <symbol id="icon-arrow-up-tray" viewBox="0 0 32 32">
      <path stroke-linejoin="round" stroke-linecap="round" stroke-width="1.333" d="M4 22v3a3.004 3.004 0 0 0 3 3h18a3.004 3.004 0 0 0 3-3v-3M10 10l6-6m0 0 6 6m-6-6v18"/>
    </symbol>
    <symbol id="icon-minus-small" viewBox="0 0 32 32">
      <path d="M7 16a.997.997 0 0 1 1-1h16a.997.997 0 0 1 1 1 .997.997 0 0 1-1 1H8a.997.997 0 0 1-1-1z"/>
    </symbol>
    <symbol id="icon-calendar-days" viewBox="0 0 32 32">
      <path stroke-linejoin="round" stroke-linecap="round" stroke-width="1.6" d="M9 4v3m14-3v3M4 25V10a3.004 3.004 0 0 1 3-3h18a3.004 3.004 0 0 1 3 3v15M4 25a3.004 3.004 0 0 0 3 3h18a3.004 3.004 0 0 0 3-3M4 25V15a3.004 3.004 0 0 1 3-3h18a3.004 3.004 0 0 1 3 3v10m-12-8h.011v.011H16V17zm0 3h.011v.011H16V20zm0 3h.011v.011H16V23zm-3-3h.011v.011H13V20zm0 3h.011v.011H13V23zm-3-3h.011v.011H10V20zm0 3h.011v.011H10V23zm9-6h.011v.011H19V17zm0 3h.011v.011H19V20zm0 3h.011v.011H19V23zm3-6h.011v.011H22V17zm0 3h.011v.011H22V20z"/>
    </symbol>
    <symbol id="icon-presentation-chart-bar" viewBox="0 0 32 32">
      <path stroke-linejoin="round" stroke-linecap="round" stroke-width="1.6" d="M5 4v15a3.004 3.004 0 0 0 3 3h3M5 4H3m2 0h22M11 22h10m-10 0-1.333 4M27 4h2m-2 0v15a3.004 3.004 0 0 1-3 3h-3m0 0 1.333 4M9.667 26h12.667M9.667 26 9 28m13.333-2L23 28M12 15v2m4-5v5m4-8v8"/>
    </symbol>
    <symbol id="icon-wrench-screwdriver" viewBox="0 0 32 32">
      <path stroke-linejoin="round" stroke-linecap="round" stroke-width="1.6" d="M15.227 20.227 23 28a3.535 3.535 0 0 0 5.996-2.513 3.535 3.535 0 0 0-.995-2.488l-7.836-7.836m-4.938 5.064 3.328-4.04c.423-.512.987-.835 1.611-1.021.733-.219 1.551-.251 2.324-.187a6.006 6.006 0 0 0 6.486-5.404 6.013 6.013 0 0 0-.504-3.045l-4.368 4.369a4.01 4.01 0 0 1-3-3l4.368-4.368a6.008 6.008 0 0 0-7.912 2.943 6.01 6.01 0 0 0-.536 3.039c.121 1.435-.095 3.019-1.205 3.933l-.136.113m-.456 6.668L9.02 27.764a3.403 3.403 0 0 1-2.46 1.239A3.4 3.4 0 0 1 3 25.442a3.39 3.39 0 0 1 1.239-2.46l9.116-7.507-5.476-5.476H6l-3-5 2-2 5 3v1.879l5.68 5.68-2.327 1.916M24.5 24.5 21 21M6.489 25.5H6.5v.011h-.011V25.5z"/>
    </symbol>
    <symbol id="icon-user" viewBox="0 0 32 32">
      <path stroke-width="1.333" d="M31.333 16c0 8.468-6.865 15.333-15.333 15.333S.667 24.468.667 16 7.532.667 16 .667 31.333 7.532 31.333 16z"/>
      <path stroke-linejoin="round" stroke-linecap="round" stroke-width="1.333" d="M20.001 9.436c0 1.088-.421 2.132-1.172 2.901S17.061 13.539 16 13.539c-1.061 0-2.079-.432-2.829-1.202s-1.172-1.813-1.172-2.901c0-1.088.421-2.132 1.172-2.901S14.939 5.333 16 5.333c1.061 0 2.079.432 2.829 1.202s1.172 1.813 1.172 2.901zM8 24.881c.034-2.153.892-4.205 2.389-5.715S13.901 16.81 16 16.81c2.099 0 4.115.846 5.611 2.356s2.355 3.562 2.389 5.715a18.732 18.732 0 0 1-8 1.785c-2.855 0-5.564-.639-8-1.785z"/>
    </symbol>
    <symbol id="icon-close-x" viewBox="0 0 32 32">
      <path stroke-linejoin="round" stroke-linecap="round" stroke-miterlimit="4" stroke-width="3.4286" d="M2.286 29.714l27.429-27.429M2.286 2.286l27.429 27.429"></path>
    </symbol>

    <svg id="water-glass" viewBox="0 0 36 36" fill="none" xmlns="http://www.w3.org/2000/svg">
      <path d="M6.26086 3.13049L8.3996 32.7888V32.8696H26.8121L28.9508 3.22281V3.13049H6.26086ZM26.0556 32.0387H9.16181L7.55776 9.82382H8.43942L9.88989 29.4018C9.89839 29.5049 9.94449 29.601 10.0192 29.6715C10.0939 29.7419 10.1918 29.7815 10.2938 29.7826H10.3279C10.381 29.779 10.4328 29.7647 10.4804 29.7407C10.5281 29.7166 10.5705 29.6833 10.6054 29.6425C10.6403 29.6018 10.6669 29.5544 10.6837 29.5032C10.7005 29.452 10.7072 29.3979 10.7033 29.3441L9.25282 9.82382H27.6596L26.0556 32.0387ZM27.7165 8.99292H9.19025L8.87172 4.66534C8.86171 4.55977 8.81281 4.46191 8.73478 4.39131C8.65675 4.32071 8.55533 4.28257 8.4508 4.28451C8.34366 4.29479 8.24465 4.34686 8.17461 4.42974C8.10458 4.51262 8.069 4.61984 8.07538 4.72881L8.39391 8.99869H7.50088L7.13684 3.95562H28.0805L27.7165 8.99292Z" fill="#407BFF" />
      <path d="M12.7794 13.9321C13.0449 13.9321 13.3045 13.8522 13.5252 13.7026C13.746 13.553 13.918 13.3403 14.0196 13.0915C14.1212 12.8427 14.1478 12.5689 14.096 12.3047C14.0442 12.0405 13.9164 11.7979 13.7286 11.6075C13.5409 11.417 13.3017 11.2873 13.0413 11.2348C12.7809 11.1822 12.511 11.2092 12.2657 11.3123C12.0204 11.4153 11.8108 11.5899 11.6632 11.8138C11.5157 12.0378 11.437 12.301 11.437 12.5704C11.437 12.9315 11.5784 13.2779 11.8302 13.5333C12.0819 13.7886 12.4234 13.9321 12.7794 13.9321ZM12.7794 12.0337C12.884 12.0337 12.9863 12.0652 13.0733 12.1242C13.1603 12.1831 13.2281 12.267 13.2681 12.365C13.3082 12.4631 13.3187 12.571 13.2982 12.6751C13.2778 12.7791 13.2274 12.8748 13.1535 12.9498C13.0795 13.0249 12.9852 13.076 12.8826 13.0967C12.78 13.1174 12.6736 13.1068 12.577 13.0661C12.4803 13.0255 12.3977 12.9567 12.3396 12.8685C12.2814 12.7802 12.2504 12.6765 12.2504 12.5704C12.2504 12.428 12.3061 12.2916 12.4054 12.1909C12.5046 12.0903 12.6391 12.0337 12.7794 12.0337Z" fill="#407BFF" />
      <path d="M12.7738 18.3578C12.7772 18.6266 12.8589 18.8884 13.0087 19.1102C13.1585 19.332 13.3696 19.5038 13.6155 19.604C13.8614 19.7043 14.1311 19.7284 14.3905 19.6735C14.6499 19.6185 14.8875 19.4869 15.0733 19.2952C15.2591 19.1036 15.3848 18.8604 15.4346 18.5963C15.4844 18.3323 15.456 18.0592 15.353 17.8115C15.2501 17.5638 15.0772 17.3525 14.856 17.2043C14.6349 17.0561 14.3755 16.9777 14.1105 16.9788C13.9332 16.9795 13.7579 17.0159 13.5946 17.0857C13.4312 17.1556 13.2832 17.2576 13.1589 17.3858C13.0346 17.514 12.9366 17.6659 12.8705 17.8327C12.8044 17.9996 12.7715 18.178 12.7738 18.3578ZM14.6395 18.3578C14.6395 18.464 14.6085 18.5677 14.5503 18.656C14.4922 18.7442 14.4096 18.813 14.3129 18.8536C14.2163 18.8942 14.1099 18.9048 14.0073 18.8841C13.9047 18.8634 13.8104 18.8123 13.7364 18.7373C13.6625 18.6622 13.6121 18.5666 13.5917 18.4625C13.5713 18.3584 13.5817 18.2505 13.6218 18.1525C13.6618 18.0544 13.7296 17.9706 13.8166 17.9116C13.9036 17.8527 14.0059 17.8212 14.1105 17.8212C14.2508 17.8212 14.3854 17.8777 14.4846 17.9784C14.5838 18.079 14.6395 18.2155 14.6395 18.3578Z" fill="#407BFF" />
      <path d="M22.3127 18.3924C22.5782 18.3924 22.8378 18.3126 23.0585 18.1629C23.2793 18.0133 23.4513 17.8006 23.553 17.5518C23.6546 17.303 23.6811 17.0292 23.6293 16.765C23.5775 16.5009 23.4497 16.2582 23.262 16.0678C23.0742 15.8773 22.835 15.7477 22.5746 15.6951C22.3142 15.6426 22.0443 15.6695 21.799 15.7726C21.5537 15.8757 21.3441 16.0502 21.1966 16.2741C21.0491 16.4981 20.9703 16.7614 20.9703 17.0307C20.9703 17.3918 21.1118 17.7382 21.3635 17.9936C21.6153 18.249 21.9567 18.3924 22.3127 18.3924ZM22.3127 16.4998C22.4176 16.4998 22.5201 16.5315 22.6072 16.5907C22.6943 16.6499 22.7621 16.7341 22.802 16.8325C22.8419 16.9309 22.852 17.039 22.8311 17.1433C22.8102 17.2475 22.7593 17.3431 22.6847 17.418C22.6102 17.4928 22.5154 17.5434 22.4124 17.5635C22.3094 17.5835 22.2029 17.5721 22.1063 17.5306C22.0098 17.4891 21.9276 17.4194 21.8701 17.3304C21.8127 17.2414 21.7826 17.1371 21.7837 17.0307C21.7852 16.8894 21.8416 16.7544 21.9407 16.655C22.0397 16.5556 22.1734 16.4998 22.3127 16.4998Z" fill="#407BFF" />
      <path d="M17.6371 15.8247C17.9026 15.8247 18.1621 15.7448 18.3829 15.5952C18.6036 15.4456 18.7757 15.2329 18.8773 14.9841C18.9789 14.7352 19.0055 14.4614 18.9537 14.1973C18.9019 13.9331 18.774 13.6905 18.5863 13.5C18.3986 13.3096 18.1594 13.1799 17.899 13.1274C17.6386 13.0748 17.3687 13.1018 17.1234 13.2049C16.8781 13.3079 16.6684 13.4825 16.5209 13.7064C16.3734 13.9303 16.2947 14.1936 16.2947 14.4629C16.2947 14.8241 16.4361 15.1705 16.6879 15.4258C16.9396 15.6812 17.2811 15.8247 17.6371 15.8247ZM17.6371 13.9263C17.7417 13.9263 17.844 13.9578 17.931 14.0168C18.018 14.0757 18.0858 14.1595 18.1258 14.2576C18.1658 14.3556 18.1763 14.4635 18.1559 14.5676C18.1355 14.6717 18.0851 14.7673 18.0111 14.8424C17.9372 14.9174 17.8429 14.9685 17.7403 14.9893C17.6377 15.01 17.5313 14.9993 17.4346 14.9587C17.338 14.9181 17.2554 14.8493 17.1972 14.7611C17.1391 14.6728 17.1081 14.5691 17.1081 14.4629C17.1042 14.3901 17.115 14.3172 17.1399 14.2487C17.1647 14.1802 17.2031 14.1176 17.2526 14.0647C17.3021 14.0118 17.3617 13.9696 17.4278 13.9409C17.494 13.9121 17.5651 13.8974 17.6371 13.8975V13.9263Z" fill="#407BFF" />
      <path d="M15.0775 23.5451C15.0831 23.7664 15.1529 23.981 15.2781 24.1622C15.4033 24.3434 15.5785 24.4831 15.7816 24.5639C15.9847 24.6446 16.2067 24.6628 16.42 24.6162C16.6333 24.5696 16.8282 24.4602 16.9805 24.3018C17.1328 24.1433 17.2357 23.9428 17.2762 23.7254C17.3167 23.508 17.2932 23.2832 17.2085 23.0793C17.1237 22.8754 16.9816 22.7013 16.7999 22.5789C16.6181 22.4565 16.4049 22.3912 16.1867 22.3911C15.8899 22.3986 15.6078 22.5235 15.4006 22.7392C15.1934 22.9548 15.0774 23.244 15.0775 23.5451ZM16.1867 23.2451C16.2452 23.2451 16.3024 23.2627 16.351 23.2957C16.3997 23.3286 16.4376 23.3755 16.46 23.4303C16.4824 23.4851 16.4882 23.5455 16.4768 23.6037C16.4654 23.6619 16.4372 23.7153 16.3959 23.7573C16.3545 23.7993 16.3018 23.8278 16.2444 23.8394C16.187 23.851 16.1276 23.845 16.0735 23.8223C16.0195 23.7996 15.9733 23.7612 15.9408 23.7118C15.9083 23.6625 15.8909 23.6045 15.8909 23.5451C15.8909 23.4656 15.9221 23.3892 15.9776 23.333C16.033 23.2767 16.1083 23.2451 16.1867 23.2451Z" fill="#407BFF" />
      <path d="M20.4414 22.2931C20.6691 22.3011 20.894 22.2396 21.0868 22.1164C21.2797 21.9933 21.4317 21.8143 21.523 21.6025C21.6144 21.3908 21.641 21.1561 21.5994 20.9288C21.5577 20.7016 21.4497 20.4922 21.2894 20.3279C21.1292 20.1637 20.9239 20.052 20.7003 20.0074C20.4767 19.9628 20.2451 19.9874 20.0354 20.0779C19.8258 20.1684 19.6477 20.3207 19.5244 20.515C19.401 20.7094 19.338 20.9368 19.3436 21.1679C19.3507 21.4621 19.4683 21.7424 19.6723 21.9515C19.8764 22.1607 20.1515 22.2829 20.4414 22.2931ZM20.4414 20.8678C20.5199 20.8678 20.5951 20.8995 20.6506 20.9557C20.706 21.012 20.7372 21.0883 20.7372 21.1679C20.7372 21.2475 20.706 21.3238 20.6506 21.3801C20.5951 21.4363 20.5199 21.4679 20.4414 21.4679C20.3624 21.468 20.2866 21.4365 20.2302 21.3804C20.1738 21.3243 20.1414 21.248 20.1399 21.1679C20.1399 21.128 20.1478 21.0885 20.163 21.0517C20.1782 21.0149 20.2005 20.9816 20.2286 20.9537C20.2566 20.9257 20.2899 20.9037 20.3265 20.889C20.363 20.8743 20.4021 20.8671 20.4414 20.8678Z" fill="#407BFF" />
      <path d="M22.7848 12.98C23.0098 12.98 23.2298 12.9124 23.4169 12.7856C23.604 12.6587 23.7498 12.4785 23.8359 12.2676C23.922 12.0568 23.9445 11.8247 23.9006 11.6009C23.8567 11.377 23.7484 11.1714 23.5893 11.01C23.4302 10.8486 23.2275 10.7387 23.0068 10.6942C22.7861 10.6496 22.5574 10.6725 22.3495 10.7598C22.1416 10.8472 21.9639 10.9951 21.8389 11.1849C21.7139 11.3747 21.6472 11.5978 21.6472 11.826C21.6472 12.1321 21.7671 12.4256 21.9804 12.642C22.1938 12.8585 22.4831 12.98 22.7848 12.98ZM22.7848 11.5548C22.8289 11.5421 22.8752 11.5399 22.9202 11.5483C22.9652 11.5568 23.0077 11.5758 23.0442 11.6038C23.0808 11.6318 23.1104 11.668 23.1308 11.7095C23.1512 11.7511 23.1619 11.7969 23.1619 11.8433C23.1619 11.8898 23.1512 11.9356 23.1308 11.9771C23.1104 12.0187 23.0808 12.0549 23.0442 12.0829C23.0077 12.1108 22.9652 12.1298 22.9202 12.1383C22.8752 12.1468 22.8289 12.1446 22.7848 12.1318C22.7408 12.1446 22.6945 12.1468 22.6495 12.1383C22.6045 12.1298 22.562 12.1108 22.5255 12.0829C22.4889 12.0549 22.4593 12.0187 22.4389 11.9771C22.4184 11.9356 22.4078 11.8898 22.4078 11.8433C22.4078 11.7969 22.4184 11.7511 22.4389 11.7095C22.4593 11.668 22.4889 11.6318 22.5255 11.6038C22.562 11.5758 22.6045 11.5568 22.6495 11.5483C22.6945 11.5399 22.7408 11.5421 22.7848 11.5548Z" fill="#407BFF" />
      <path d="M11.6646 30.5904C11.6136 30.6143 11.568 30.6485 11.5306 30.691C11.4931 30.7335 11.4647 30.7834 11.4471 30.8375C11.4295 30.8917 11.4231 30.9489 11.4282 31.0056C11.4333 31.0624 11.4499 31.1175 11.4769 31.1674C11.5119 31.2348 11.5642 31.2913 11.6283 31.331C11.6924 31.3706 11.7659 31.3918 11.841 31.3925C11.904 31.3942 11.9665 31.3804 12.023 31.3521C13.7609 30.4489 15.6845 29.9744 17.6372 29.9672C19.7037 29.9978 21.7414 30.4634 23.6211 31.3348C23.6955 31.3742 23.78 31.3894 23.8632 31.3785C23.9464 31.3676 24.0243 31.331 24.0863 31.2738C24.1484 31.2165 24.1916 31.1413 24.2101 31.0583C24.2286 30.9753 24.2216 30.8885 24.1899 30.8097C24.1499 30.7074 24.0724 30.6247 23.9738 30.5789C21.9837 29.6554 19.8254 29.1641 17.6372 29.1364C15.5614 29.1382 13.5152 29.6364 11.6646 30.5904Z" fill="#407BFF" />
    </svg>
  </defs>
</svg>
